<svg width="76" height="120" viewBox="0 0 76 120" fill="none" xmlns="http://www.w3.org/2000/svg">
<path d="M72.9684 104.727C72.9684 104.727 67.5586 94.3449 65.6215 85.893C63.207 73.8768 83.4196 57.3392 72.0527 44.2086C70.1777 42.5651 75.843 33.4984 74.4676 31.1202C73.5482 33.7612 70.4477 38.0072 70.4477 38.0072C70.4477 38.0072 70.3052 25.2321 67.7811 22.42C68.4124 27.4448 68.0363 32.6103 68.0363 32.6103C68.0363 32.6103 64.1913 21.6174 60.3429 19.9814C64.3263 23.8664 64.1332 29.8581 64.1332 29.8581C64.1332 29.8581 57.7019 17.5719 48.7428 17.8C55.2834 21.3584 56.8919 26.4127 56.8919 26.4127C56.8919 26.4127 14.5224 20.6724 22.2157 4.36291C16.244 5.85678 16.244 22.2775 16.244 22.2775C16.244 22.2775 10.3857 12.4008 20.1474 0C-0.178606 12.7457 7.62783 35.5996 7.62783 35.5996C7.62783 35.5996 3.26493 35.2547 0.966948 19.177C-3.50905 38.93 9.00675 49.2628 9.00675 49.2628C9.00675 49.2628 4.06747 57.9886 6.82529 62.1235C9.58311 66.2527 3.14809 75.5621 3.26492 78.5464C3.38176 81.5301 8.09112 81.1871 8.09112 81.1871C8.09112 81.1871 6.24892 86.1264 10.2723 86.6993C9.35319 87.0423 7.74811 90.2594 12.3406 92.0981C10.9617 92.4411 8.20764 108.517 27.9573 98.4126C35.3042 102.199 39.3241 120 39.3241 120L72.9684 104.727Z" fill="#E5E5E5"/>
</svg>
