<svg width="120" height="120" viewBox="0 0 120 120" fill="none" xmlns="http://www.w3.org/2000/svg">
<path d="M77.1459 89.8406C77.2906 89.5226 77.4353 89.2047 77.6374 88.9157C77.9756 88.3781 78.3884 87.7078 78.83 86.9839C78.6092 85.8655 78.7433 84.6324 79.4345 83.3649C88.8968 66.0107 94.245 43.7676 79.42 27.5533C74.6409 22.3268 65.6259 21.0172 61.2203 15.8681C51.7315 14.8211 42.1155 17.3005 34.2005 23.8633C32.367 25.3839 30.2649 25.4778 28.4899 24.7873C28.2832 25.7543 28.1745 26.6194 28.1329 27.2733C22.3531 30.5389 17.9024 45.509 17.9024 45.509C18.9141 46.8382 21.5438 53.5142 15.6482 58.5714C9.75306 63.6289 10.5909 66.8945 12.7873 67.9927C13.7123 68.4548 14.6082 68.8019 15.1282 69.3219C15.8508 70.0443 15.9376 71.0851 14.6372 73.3099C14.2034 74.0615 13.9435 74.7551 13.8279 75.42C13.2787 78.1942 15.0414 80.1303 15.0414 80.1303C12.7008 82.6733 15.9666 87.2104 15.9666 87.2104C15.9666 87.2104 15.8801 87.4381 15.7625 87.8435C17.0595 88.1639 18.1421 89.3297 17.6662 90.9846C17.0691 93.0614 17.9184 96.0183 19.876 97.1336C22.1521 98.4304 25.3525 97.9124 27.8408 97.7525C30.6768 97.5703 31.099 101.241 29.17 102.54L30.0404 104.579L34.0865 114L79.978 104.521C79.978 104.521 74.4874 95.7938 77.1459 89.8406Z" fill="#E5E5E5"/>
<path d="M92.9249 60.1901C92.1449 64.5539 81.3652 82.9913 77.6374 88.9158C77.4352 89.2047 77.2906 89.5226 77.146 89.8408C75.5853 88.0487 72.6954 84.3206 71.6265 80.1303C70.1526 74.2348 75.1232 67.646 72.7243 61.8951C70.2972 56.1152 67.8983 54.6413 58.6218 62.1551C49.3742 69.6688 57.6968 75.8533 55.3558 84.8123C53.0152 93.7996 45.7903 96.6606 45.7903 96.6606C41.369 99.4352 30.4739 104.579 30.4739 104.579H30.0404L29.029 102.209C29.029 102.209 16.66 103.654 15.475 97.5856C14.2901 91.5168 15.9665 87.2105 15.9665 87.2105C19.8389 87.4419 20.3881 84.7834 21.0238 86.0837C21.6306 87.3841 18.365 91.43 23.8559 89.9561C29.3179 88.4822 28.0751 81.4021 26.3123 79.2057C24.5205 76.9804 15.475 76.2579 14.2033 75.8244C14.0301 75.7665 13.9147 75.6222 13.8279 75.4201C13.2212 73.9751 15.1283 69.322 15.1283 69.322L18.0761 69.4377C18.0761 69.4377 24.0873 71.4027 27.844 74.3505C31.6007 77.2982 30.9361 83.9163 30.9361 83.9163C32.6414 79.0611 47.6399 70.0156 50.9056 66.4321C54.2001 62.8197 53.2462 59.0916 53.1019 51.7514C52.9577 44.4109 58.8818 41.8966 52.0905 32.9958C46.9464 26.2045 33.9996 26.6667 28.1329 27.2734C28.3933 23.1989 30.7629 11.4367 48.8824 12.0724C70.7593 12.8527 88.0989 26.1178 89.6596 35.9722C91.2202 45.7983 93.7052 55.7974 92.9249 60.1901Z" fill="#293B44"/>
<path d="M72.3592 31.438L72.6898 32.0921L63.6633 37.2034L62.8906 35.6746L72.3592 31.438Z" fill="#19282F"/>
<path d="M72.9523 32.6115L73.2829 33.2656L64.2564 38.3769L63.4837 36.8481L72.9523 32.6115Z" fill="#293B44"/>
<path d="M71.1246 28.9954L71.4552 29.6495L62.4287 34.7608L61.656 33.232L71.1246 28.9954Z" fill="#19282F"/>
<path d="M71.7177 30.1688L72.0483 30.823L63.0218 35.9343L62.2491 34.4055L71.7177 30.1688Z" fill="#293B44"/>
<path d="M69.8901 26.5527L70.2207 27.2069L61.1942 32.3182L60.4215 30.7894L69.8901 26.5527Z" fill="#19282F"/>
<path d="M70.4832 27.7261L70.8138 28.3802L61.7873 33.4915L61.0146 31.9627L70.4832 27.7261Z" fill="#293B44"/>
<path d="M68.6555 24.1101L68.9861 24.7643L59.9596 29.8756L59.1869 28.3468L68.6555 24.1101Z" fill="#19282F"/>
<path d="M69.2486 25.2836L69.5792 25.9377L60.5527 31.049L59.78 29.5202L69.2486 25.2836Z" fill="#293B44"/>
<path d="M67.4209 21.6675L67.7516 22.3216L58.725 27.4329L57.9523 25.9041L67.4209 21.6675Z" fill="#19282F"/>
<path d="M68.014 22.8409L68.3446 23.4951L59.3181 28.6064L58.5454 27.0776L68.014 22.8409Z" fill="#293B44"/>
<path d="M66.1864 19.2249L66.517 19.879L57.4905 24.9903L56.7177 23.4615L66.1864 19.2249Z" fill="#19282F"/>
<path d="M66.7794 20.3983L67.11 21.0525L58.0835 26.1638L57.3108 24.635L66.7794 20.3983Z" fill="#293B44"/>
<path d="M65.3077 19.4231L72.6022 33.8555C72.8467 34.3394 73.4373 34.5334 73.9212 34.2888L80.0149 31.2089C80.3016 31.0639 80.4994 30.7879 80.5442 30.4697L81.6644 22.5183L108.261 8.16458C108.81 7.86833 109.023 7.18881 108.741 6.63216C108.461 6.07786 107.792 5.84571 107.229 6.10751L79.8138 18.8519L72.7438 15.0364C72.461 14.8838 72.1215 14.8793 71.8347 15.0242L65.741 18.1041C65.2571 18.3487 65.0631 18.9392 65.3077 19.4231Z" fill="#EDEDED"/>
<path d="M73.7081 32.7133L79.0945 29.9909L80.2158 22.032L79.3428 20.3049L72.2695 16.4877L66.8832 19.2101L73.7081 32.7133Z" fill="#DBD8DD"/>
</svg>
