<svg width="120" height="120" viewBox="0 0 120 120" fill="none" xmlns="http://www.w3.org/2000/svg">
<path d="M106.92 78.858C106.292 76.6864 105.226 74.6475 103.69 72.9361C99.5419 68.3395 93.2253 67.1348 88.1689 69.7549C88.1284 69.7624 88.1062 69.743 88.0586 69.7549C82.3445 72.4799 73.4041 66.7528 68.8366 65.1817C66.3306 64.3201 64.0486 62.4545 61.8511 60.7976C65.32 61.0374 68.9726 63.0141 70.6702 63.9537C71.001 64.133 71.2876 63.9692 71.0964 63.7236C69.5385 61.792 68.2524 59.9945 67.4809 58.2987L71.8755 62.5422L72.4782 61.8444L66.8413 56.4019C66.7384 55.93 66.7013 55.4682 66.7163 55.0082L73.0697 61.1446L73.6688 60.4466L66.8779 53.8949C66.9551 53.5987 67.0616 53.3041 67.194 53.0119L74.2272 59.7954L74.8299 59.0956L67.6646 52.1872C67.8334 51.9378 68.0135 51.6999 68.223 51.4523L75.4253 58.4018L76.0242 57.704L68.8183 50.7528C68.9909 50.5499 69.1931 50.3181 69.4209 50.0549L76.6233 57.0042L77.2257 56.3101L70.0237 49.355C70.1924 49.1562 70.3875 48.9319 70.5785 48.7059L77.7808 55.6592L78.3796 54.9612L71.1775 48.0099C71.3355 47.8229 71.5006 47.6319 71.67 47.4273L78.8721 54.3824L79.4712 53.6847L72.2687 46.7335C72.4636 46.5017 72.662 46.2696 72.8677 46.0355L80.07 52.989L80.6652 52.291L73.4632 45.3357C73.6505 45.1233 73.8342 44.909 74.0216 44.6848L81.2239 51.636L81.8228 50.9361L74.617 43.9944C74.8115 43.7626 75.0065 43.5305 75.2123 43.2947L82.4145 50.246L83.01 49.5519L75.8076 42.6007C76.0062 42.3689 76.2044 42.1387 76.4103 41.9027L83.6124 48.8561L84.2078 48.1583L77.0095 41.203C77.1967 40.9926 77.3805 40.7763 77.5642 40.558L84.7665 47.5071L85.3618 46.8094L78.1598 39.8582C78.3066 39.6905 78.4535 39.5189 78.5931 39.3553L85.7953 46.3065L86.3943 45.6064L79.1922 38.6573C79.3942 38.4213 79.5926 38.1893 79.791 37.9574L86.9934 44.9086L87.5958 44.2106L80.3938 37.2594C80.5775 37.0431 80.7648 36.8286 80.9522 36.6084L88.1545 43.5635L88.7498 42.8636L81.5477 35.9143C81.7461 35.6825 81.9445 35.4504 82.1465 35.2144L89.349 42.1696L89.9406 41.4718L82.7456 34.5088C82.9474 34.277 83.1425 34.041 83.3483 33.8089L90.5505 40.764L91.146 40.0663L83.9436 33.1112C84.1348 32.8967 84.3185 32.6765 84.5023 32.4601L91.7044 39.4113L92.3071 38.7136L85.1011 31.7623C85.2591 31.5753 85.4171 31.3899 85.5789 31.2067L92.7809 38.1579L93.3801 37.458L86.1776 30.5087C86.3614 30.2962 86.5451 30.0778 86.7289 29.8617L93.9312 36.8129L94.5301 36.113L87.3279 29.1635C87.4931 28.9705 87.6586 28.7756 87.8239 28.5846L95.0262 35.5377L95.625 34.84L88.4228 27.8849C88.6212 27.6529 88.8232 27.4189 89.0219 27.1908L96.224 34.1402L96.8196 33.4425L89.6171 26.4913C89.8083 26.273 89.9957 26.0527 90.1758 25.8421L97.378 32.7915L97.977 32.0935L90.7746 25.1423C90.9767 24.9026 91.1752 24.6764 91.3735 24.4446L98.5758 31.3997L99.1711 30.6999L91.9691 23.7544C92.1749 23.5145 92.3733 23.2787 92.5717 23.0546L99.7741 30.0058L100.369 29.3059L93.1745 22.3564C93.3654 22.1321 93.549 21.9177 93.729 21.7053L100.931 28.6546L101.53 27.9605L94.3283 21.0074C94.4825 20.83 94.6221 20.6664 94.7617 20.5026L101.964 27.4538L102.563 26.7599L95.3569 19.8007C95.5771 19.5453 95.7757 19.3135 95.9557 19.1028L103.158 26.0523L103.757 25.3545L96.5543 18.4074C96.8629 18.0448 97.0391 17.8402 97.0391 17.8402C97.0649 17.8129 97.0868 17.7896 97.1126 17.7583L104.315 24.7116L104.91 24.0139L97.7078 17.0627C97.9137 16.8226 98.1157 16.5928 98.3108 16.3647L105.513 23.3179L106.112 22.624L98.9096 15.6688C99.1191 15.4213 99.3175 15.1873 99.5085 14.9749L106.711 21.9261L107.314 21.2261L100.111 14.2769C100.328 14.0256 100.508 13.8129 100.666 13.6259L107.868 20.5754L108.467 19.8813L101.272 12.9358C101.434 12.7351 101.596 12.5596 101.765 12.3958L108.938 19.318L109.54 18.6201L102.492 11.8208C102.771 11.6337 103.058 11.4855 103.345 11.3706L110.136 17.926L110.738 17.2301L104.381 11.0936C104.815 11.0351 105.248 11.0311 105.701 11.0897L111.337 16.5324L111.936 15.8323L107.541 11.5887C109.166 12.2243 110.922 13.3743 112.833 14.7914C113.09 14.9824 113.351 14.7642 113.149 14.4327C109.272 8.10525 101.008 6.19105 97.789 9.94153C97.1056 10.7425 95.632 12.4561 93.7432 14.6589C93.7432 14.6589 81.9844 28.3723 73.419 38.3647C73.0625 38.7761 72.7099 39.1913 72.3681 39.5908C68.8368 43.7039 66.0001 47.0119 65.0116 48.1619L56.6901 57.8715C56.6424 57.8598 56.5929 57.8306 56.5432 57.819C56.3061 57.7624 55.8781 57.5871 55.2792 57.316L29.8157 0L43.772 50.086C43.772 50.086 43.8932 50.5538 44.0917 51.3686C26.9037 41.7857 0 23.4776 0 23.4776C0 23.4776 45.6884 65.8091 47.329 67.2283C47.3971 67.6415 47.4945 68.0587 47.588 68.4759L15.9461 105.373L16.9548 106.348L48.483 71.6417C51.3051 80.0433 57.0026 88.8428 51.0312 93.334C51.0165 93.3613 51.0312 93.3885 51.0203 93.4198C45.6387 97.4314 44.4648 105.911 48.4996 112.648C52.6427 119.568 60.6901 122.044 66.4445 118.168C69.9797 115.786 71.7362 110.964 73.1177 106.324C71.9382 102.597 70.9645 101.256 69.3696 98.5894C68.3261 96.8467 67.0326 95.3921 65.5922 94.2383C62.4688 91.0879 53.3301 67.5676 54.2634 65.3726C65.4049 65.197 79.6405 74.3901 81.2609 82.9399C81.2755 82.9399 81.3049 82.9165 81.3198 82.9087C81.5917 86.2107 82.8631 89.3414 85.09 91.8095C89.5728 96.7801 96.6173 97.8404 101.824 94.3318C102.507 93.8719 103.15 93.3377 103.735 92.7413C105.859 90.5893 107.097 87.7511 107.428 84.6554C108.64 84.1992 110.397 83.7431 112.061 84.1409C118.213 85.8448 119.874 80.472 119.999 78.7921C120.123 77.2012 111.231 81.903 106.92 78.858ZM46.9304 61.4194C46.1367 60.0998 46.5077 58.3374 47.7535 57.4955C49.0064 56.6571 50.6581 57.0489 51.4483 58.3746C52.242 59.7 51.8746 61.4563 50.6253 62.2987C49.3795 63.1368 47.7203 62.7451 46.9304 61.4194ZM57.8385 95.7589C58.1509 95.7937 58.4631 95.8211 58.7719 95.8523C61.4252 96.3008 64.0708 98.102 65.8052 100.991C68.6971 105.825 67.9658 111.829 64.1808 114.379C60.396 116.932 54.9594 115.08 52.0693 110.25C49.1792 105.42 49.9069 99.408 53.6917 96.8581C54.9448 96.0083 56.3778 95.6925 57.8385 95.7589ZM100.824 89.4977C100.435 89.8874 100.016 90.2461 99.5676 90.5502C96.0475 92.9126 91.2482 92.1408 88.1506 88.7022C86.4198 86.784 85.4571 84.3083 85.435 81.7471C85.4167 79.2246 86.317 76.9207 87.967 75.2443C88.3529 74.8543 88.7753 74.4995 89.2236 74.1993C92.7404 71.8328 97.5356 72.6087 100.633 76.0356C102.368 77.9577 103.327 80.4372 103.349 82.9987C103.367 85.5131 102.463 87.829 100.824 89.4977Z" fill="#E5E5E5"/>
</svg>
