<svg width="125" height="32" viewBox="0 0 125 32" fill="none" xmlns="http://www.w3.org/2000/svg">
<ellipse cx="31.1033" cy="19.8019" rx="3.52113" ry="3.56604" fill="#E5E5E5"/>
<ellipse cx="93.8967" cy="19.8019" rx="3.52113" ry="3.56604" fill="#E5E5E5"/>
<ellipse cx="121.479" cy="19.8019" rx="3.52113" ry="3.56604" fill="#E5E5E5"/>
<ellipse cx="3.52113" cy="19.8019" rx="3.52113" ry="3.56604" fill="#E5E5E5"/>
<path d="M62.5516 14.6584C60.6669 14.6584 58.9877 16.01 58.3114 17.973C61.0397 19.1324 64.0635 19.1324 66.7919 17.973C66.1156 16.01 64.4364 14.6584 62.5516 14.6584Z" fill="#E5E5E5"/>
<path d="M77.192 0C76.6884 0 76.2808 0.468301 76.2808 1.04703C76.2808 6.24944 74.451 11.2014 71.4379 14.5684C69.7258 10.8118 66.3016 8.37624 62.5516 8.37624C58.8017 8.37624 55.3167 10.8118 53.6046 14.5684C50.5915 11.2014 48.8225 6.24944 48.8225 1.04703C48.8225 0.468301 48.4149 0 47.9112 0C47.4076 0 47 0.468301 47 1.04703V15.1513C47 18.4427 48.5252 21.5377 50.9813 23.231L56.2042 26.7903C56.4694 29.3884 58.3977 31.4109 60.7292 31.4109H64.3741C66.7056 31.4109 68.6339 29.3884 68.8991 26.7903L74.0612 23.231C76.5173 21.5377 78.1033 18.4427 78.1033 15.1513V1.04703C78.1033 0.468301 77.6957 0 77.192 0ZM68.27 19.5418C66.4502 20.4703 64.5263 20.9406 62.5516 20.9406C60.577 20.9406 58.6531 20.4703 56.8333 19.5418C56.4391 19.3414 56.222 18.8516 56.3109 18.368C56.9312 15.005 59.5563 12.5644 62.5516 12.5644C65.547 12.5644 68.1721 15.005 68.7923 18.368C68.8813 18.8516 68.6642 19.3414 68.27 19.5418Z" fill="#E5E5E5"/>
</svg>
