<svg width="60" height="60" viewBox="0 0 60 60" fill="none" xmlns="http://www.w3.org/2000/svg">
<rect width="60" height="60" fill="#C4C4C4"/>
<path d="M14.314 11C13.6165 10.9996 12.9257 11.1165 12.2812 11.3441C11.6366 11.5717 11.0509 11.9055 10.5574 12.3265C10.0639 12.7474 9.67238 13.2473 9.40516 13.7976C9.13794 14.3478 9.00026 14.9376 9 15.5333C9 18.0404 11.3785 20.1182 14.3079 20.1182C17.2414 20.1182 19.6219 18.0404 19.6219 15.5368C19.6224 14.9412 19.4855 14.3513 19.219 13.8009C18.9525 13.2505 18.5616 12.7503 18.0687 12.329C17.5757 11.9077 16.9904 11.5734 16.3462 11.3454C15.7019 11.1174 15.0114 11 14.314 11ZM40.2344 23.0202C35.7729 23.0202 33.2215 25.0121 31.995 26.9937H31.8663V23.5542H23.0741V48.7778H32.2363V36.2922C32.2363 33.0021 32.5258 29.8219 37.2929 29.8219C41.9916 29.8219 42.06 33.5739 42.06 36.5V48.7778H51.2222V34.9236C51.2222 28.1442 49.5152 23.0202 40.2344 23.0202ZM9.72984 23.5525V48.7778H18.8981V23.5525H9.72984Z" fill="black"/>
</svg>
