<svg width="32" height="34" viewBox="0 0 32 34" fill="none" xmlns="http://www.w3.org/2000/svg">
<path d="M20.7333 15.8233H28.3658C28.1249 13.6473 27.5522 11.5634 26.6843 9.70467C25.8163 7.84593 24.6722 6.25323 23.325 5.0283L21.0054 2.91852L22.4308 0L24.7504 2.10978C26.7028 3.87509 28.3039 6.26702 29.4116 9.07331C30.5192 11.8796 31.0992 15.0135 31.1 18.1968V29.8885C31.1 30.8211 30.8269 31.7155 30.3409 32.3749C29.8549 33.0343 29.1957 33.4048 28.5083 33.4048H20.7333C20.0459 33.4048 19.3867 33.0343 18.9007 32.3749C18.4147 31.7155 18.1416 30.8211 18.1416 29.8885V19.3396C18.1416 18.407 18.4147 17.5127 18.9007 16.8532C19.3867 16.1938 20.0459 15.8233 20.7333 15.8233Z" fill="#C4C4C4"/>
<path d="M2.59165 15.8233H10.2241C9.98323 13.6473 9.41056 11.5634 8.54261 9.70467C7.67467 7.84593 6.53054 6.25323 5.1833 5.0283L2.86377 2.91852L4.27622 0L6.60871 2.10978C8.56116 3.87509 10.1622 6.26702 11.2699 9.07331C12.3775 11.8796 12.9575 15.0135 12.9583 18.1968V29.8885C12.9583 30.8211 12.6852 31.7155 12.1992 32.3749C11.7131 33.0343 11.0539 33.4048 10.3666 33.4048H2.59165C1.9043 33.4048 1.24511 33.0343 0.759077 32.3749C0.273048 31.7155 0 30.8211 0 29.8885V19.3396C0 18.407 0.273048 17.5127 0.759077 16.8532C1.24511 16.1938 1.9043 15.8233 2.59165 15.8233Z" fill="#C4C4C4"/>
</svg>
