<svg width="125" height="32" viewBox="0 0 125 32" fill="none" xmlns="http://www.w3.org/2000/svg">
<g clip-path="url(#clip0)">
<path d="M72.3141 20.5805C72.1513 20.0499 71.875 19.5518 71.477 19.1338C70.4017 18.0108 68.7644 17.7165 67.4538 18.3566C67.4433 18.3584 67.4376 18.3537 67.4252 18.3566C65.9442 19.0223 63.6269 17.6231 62.443 17.2393C61.7934 17.0288 61.202 16.5731 60.6324 16.1683C61.5315 16.2269 62.4783 16.7098 62.9183 16.9393C63.004 16.9831 63.0783 16.9431 63.0287 16.8831C62.6249 16.4112 62.2916 15.9721 62.0916 15.5578L63.2307 16.5945L63.3869 16.424L61.9258 15.0944C61.8991 14.9792 61.8895 14.8663 61.8934 14.7539L63.5402 16.2531L63.6955 16.0826L61.9353 14.482C61.9553 14.4096 61.9829 14.3377 62.0172 14.2662L63.8402 15.9235L63.9964 15.7525L62.1392 14.0648C62.183 14.0038 62.2297 13.9458 62.284 13.8853L64.1507 15.583L64.306 15.4125L62.4383 13.7143C62.483 13.6648 62.5354 13.6081 62.5944 13.5439L64.4613 15.2416L64.6174 15.072L62.7507 13.3729C62.7944 13.3243 62.845 13.2695 62.8945 13.2143L64.7613 14.913L64.9165 14.7425L63.0497 13.0443C63.0907 12.9986 63.1335 12.9519 63.1774 12.9019L65.0442 14.6011L65.1994 14.4306L63.3326 12.7324C63.3831 12.6758 63.4345 12.6191 63.4878 12.5619L65.3546 14.2606L65.5089 14.0901L63.6422 12.391C63.6907 12.3391 63.7384 12.2867 63.7869 12.2319L65.6537 13.9301L65.809 13.7591L63.9412 12.0633C63.9916 12.0066 64.0422 11.95 64.0955 11.8924L65.9623 13.5905L66.1167 13.421L64.2498 11.7228C64.3013 11.6662 64.3527 11.6099 64.4061 11.5523L66.2728 13.251L66.4271 13.0805L64.5614 11.3813C64.6099 11.3299 64.6575 11.2771 64.7052 11.2237L66.5719 12.9215L66.7262 12.751L64.8595 11.0528C64.8976 11.0118 64.9357 10.9699 64.9718 10.9299L66.8386 12.6281L66.9939 12.4571L65.1271 10.7594C65.1795 10.7018 65.2309 10.6451 65.2823 10.5884L67.1491 12.2866L67.3053 12.1161L65.4386 10.4179C65.4862 10.3651 65.5347 10.3127 65.5833 10.2589L67.4501 11.958L67.6044 11.787L65.7377 10.0893C65.7891 10.0327 65.8405 9.97597 65.8929 9.91832L67.7597 11.6175L67.9131 11.447L66.0481 9.74594C66.1005 9.6893 66.151 9.63164 66.2044 9.57494L68.0711 11.2741L68.2255 11.1036L66.3587 9.40449C66.4082 9.35211 66.4558 9.2983 66.5035 9.24544L68.3702 10.9436L68.5265 10.7732L66.6587 9.07498C66.6996 9.02927 66.7406 8.98399 66.7825 8.93925L68.6492 10.6374L68.8045 10.4664L66.9377 8.76873C66.9853 8.71678 67.033 8.66345 67.0806 8.61065L68.9474 10.3088L69.1026 10.1378L67.2359 8.44008C67.2787 8.39293 67.3216 8.34531 67.3644 8.29864L69.2312 9.9973L69.3864 9.82685L67.5197 8.1277C67.5711 8.07106 67.6234 8.01388 67.6749 7.95815L69.5417 9.65591L69.696 9.48545L67.8292 7.78726C67.8788 7.73393 67.9273 7.68011 67.974 7.62864L69.8408 9.3264L69.9961 9.15589L68.1292 7.45771C68.1816 7.39914 68.2331 7.34389 68.2845 7.28725L70.1513 8.98639L70.3056 8.8154L68.4388 7.11865C68.4922 7.06004 68.5436 7.00244 68.595 6.94766L70.4618 8.64585L70.6161 8.47486L68.7513 6.7771C68.8008 6.72232 68.8483 6.66995 68.895 6.61805L70.7618 8.31576L70.917 8.14621L69.0503 6.44754C69.0903 6.40423 69.1265 6.36423 69.1626 6.32423L71.0294 8.02242L71.1847 7.85286L69.3169 6.15276C69.374 6.09035 69.4255 6.03371 69.4721 5.98224L71.339 7.68001L71.4942 7.50955L69.6273 5.81237C69.7073 5.72378 69.753 5.67381 69.753 5.67381C69.7596 5.66714 69.7653 5.66143 69.772 5.65381L71.6388 7.35247L71.7931 7.18202L69.9263 5.48383C69.9796 5.42521 70.032 5.36905 70.0826 5.31332L71.9493 7.01198L72.1046 6.84249L70.2378 5.14334C70.2921 5.08286 70.3435 5.02568 70.393 4.97379L72.2598 6.67197L72.416 6.50098L70.5492 4.80327C70.6055 4.74189 70.6521 4.68994 70.693 4.64423L72.5598 6.34199L72.7151 6.17244L70.8502 4.47564C70.8921 4.42662 70.934 4.38374 70.9778 4.34374L72.837 6.03483L72.9932 5.86432L71.1664 4.20325C71.2388 4.15755 71.3131 4.12133 71.3874 4.09328L73.1475 5.69477L73.3037 5.52474L71.6559 4.0256C71.7683 4.0113 71.8808 4.01034 71.9979 4.02464L73.4589 5.35428L73.6143 5.18329L72.4751 4.14656C72.8961 4.30182 73.3514 4.58279 73.8466 4.92898C73.9133 4.97565 73.981 4.92232 73.9286 4.84136C72.9237 3.29555 70.7817 2.8279 69.9473 3.74415C69.7702 3.93983 69.3882 4.35846 68.8987 4.89661C68.8987 4.89661 65.8509 8.2468 63.6307 10.6879C63.5383 10.7884 63.4469 10.8899 63.3583 10.9875C62.4431 11.9923 61.7078 12.8004 61.4516 13.0814L59.2947 15.4535C59.2823 15.4506 59.2695 15.4435 59.2566 15.4406C59.1952 15.4268 59.0842 15.384 58.929 15.3177L52.329 1.31543L55.9464 13.5514C55.9464 13.5514 55.9778 13.6657 56.0293 13.8648C51.5742 11.5237 44.6009 7.05102 44.6009 7.05102C44.6009 7.05102 56.4431 17.3926 56.8683 17.7393C56.886 17.8403 56.9112 17.9422 56.9355 18.0441L48.734 27.0581L48.9955 27.2962L57.1674 18.8175C57.8989 20.87 59.3757 23.0197 57.8279 24.117C57.8241 24.1236 57.8279 24.1303 57.8251 24.1379C56.4302 25.1179 56.1259 27.1895 57.1717 28.8353C58.2456 30.5259 60.3315 31.1307 61.823 30.184C62.7393 29.602 63.1946 28.4239 63.5526 27.2905C63.2469 26.38 62.9945 26.0523 62.5811 25.4008C62.3107 24.9751 61.9754 24.6197 61.6021 24.3379C60.7925 23.5682 58.4238 17.8222 58.6657 17.286C61.5535 17.2431 65.2433 19.489 65.6633 21.5777C65.6671 21.5777 65.6747 21.572 65.6786 21.57C65.749 22.3767 66.0786 23.1416 66.6558 23.7445C67.8177 24.9588 69.6436 25.2179 70.9932 24.3607C71.1703 24.2484 71.337 24.1179 71.4884 23.9721C72.0389 23.4464 72.3599 22.7531 72.4456 21.9968C72.7599 21.8853 73.2153 21.7739 73.6467 21.8711C75.2411 22.2873 75.6716 20.9748 75.704 20.5644C75.7363 20.1757 73.4313 21.3244 72.3141 20.5805ZM56.765 16.3202C56.5593 15.9978 56.6555 15.5673 56.9783 15.3616C57.3031 15.1568 57.7312 15.2525 57.936 15.5764C58.1417 15.9002 58.0465 16.3292 57.7227 16.535C57.3998 16.7398 56.9698 16.6441 56.765 16.3202ZM59.5924 24.7093C59.6733 24.7179 59.7542 24.7245 59.8343 24.7322C60.522 24.8417 61.2077 25.2818 61.6573 25.9875C62.4068 27.1685 62.2173 28.6353 61.2362 29.2582C60.2553 29.882 58.8461 29.4296 58.097 28.2496C57.3479 27.0695 57.5365 25.6008 58.5175 24.9779C58.8423 24.7703 59.2137 24.6931 59.5924 24.7093ZM70.7341 23.1798C70.633 23.275 70.5244 23.3626 70.4083 23.4369C69.4959 24.014 68.252 23.8255 67.4491 22.9854C67.0005 22.5168 66.7509 21.912 66.7452 21.2863C66.7405 20.67 66.9738 20.1072 67.4015 19.6976C67.5015 19.6024 67.611 19.5157 67.7272 19.4424C68.6387 18.8642 69.8816 19.0538 70.6845 19.891C71.1341 20.3605 71.3827 20.9662 71.3884 21.592C71.3931 22.2063 71.1588 22.7721 70.7341 23.1798Z" fill="#E5E5E5"/>
</g>
<circle cx="31.1032" cy="16.267" r="3.52113" fill="#C4C4C4"/>
<circle cx="93.8967" cy="16.267" r="3.52113" fill="#C4C4C4"/>
<circle cx="121.479" cy="16.267" r="3.52113" fill="#C4C4C4"/>
<circle cx="3.52107" cy="16.267" r="3.52113" fill="#C4C4C4"/>
<defs>
<clipPath id="clip0">
<rect width="31.1033" height="31.1033" fill="white" transform="translate(44.6009 0.421875)"/>
</clipPath>
</defs>
</svg>
