<svg width="60" height="60" viewBox="0 0 60 60" fill="none" xmlns="http://www.w3.org/2000/svg">
<rect width="60" height="60" fill="#C4C4C4"/>
<path d="M51.1111 15.586C49.9353 17.5123 48.4929 19.1544 46.7837 20.5123C46.8005 20.8765 46.809 21.2881 46.809 21.7471C46.809 24.2977 46.4714 26.8514 45.7962 29.4081C45.121 31.9649 44.0896 34.4122 42.702 36.75C41.3144 39.0878 39.6616 41.1588 37.7435 42.9632C35.8253 44.7676 33.5196 46.2063 30.8264 47.2793C28.1332 48.3523 25.2467 48.8889 22.1671 48.8889C17.3609 48.8889 12.9348 47.4597 8.88889 44.6014C9.60699 44.6894 10.2957 44.7334 10.955 44.7334C14.9703 44.7334 18.5565 43.3712 21.7138 40.6467C19.8417 40.6089 18.165 39.9741 16.6839 38.7424C15.2028 37.5106 14.1835 35.9367 13.626 34.0206C14.177 34.1362 14.7208 34.194 15.2574 34.194C16.0299 34.194 16.7899 34.083 17.5376 33.8611C15.5397 33.4204 13.8823 32.3243 12.5653 30.5729C11.2484 28.8216 10.5899 26.8002 10.5899 24.5087V24.3906C11.8163 25.1385 13.1243 25.5364 14.5142 25.5841C13.3306 24.715 12.3922 23.5817 11.699 22.1842C11.0058 20.7866 10.6592 19.2742 10.6592 17.647C10.6592 15.9308 11.0496 14.3327 11.8305 12.8527C14.0031 15.7894 16.6358 18.1366 19.7285 19.8941C22.8211 21.6517 26.139 22.6278 29.6821 22.8224C29.5309 22.1288 29.4552 21.4049 29.455 20.6508C29.455 18.0178 30.3009 15.7696 31.9928 13.9062C33.6847 12.0428 35.7259 11.1111 38.1163 11.1111C40.6191 11.1111 42.7271 12.1149 44.4406 14.1224C46.3982 13.6953 48.2312 12.9227 49.9396 11.8048C49.2814 14.0863 48.0132 15.8463 46.1349 17.0849C47.8612 16.8589 49.5199 16.3593 51.111 15.586H51.1111Z" fill="black"/>
</svg>
